# xmcd
#
# Track frame offsets: 
#        150
#        11690
#        27780
#        53082
#        66705
#        81582
#        110775
#        130265
#        147757
#        165722
#
# Disc length: 2506 seconds
#
# Revision: 6
# Processed by: cddbd v1.5.2PL0 Copyright (c) Steve Scherf et al.
# Submitted via: ExactAudioCopy v1.0b3
#
DISCID=9009c80a,9209c80a
DTITLE=Rodgers, Paul - Electric
DYEAR=1999
DGENRE=Rock
TTITLE0=Deep Blue
TTITLE1=Walking Tall
TTITLE2=Find A Way
TTITLE3=China Blue
TTITLE4=Love Rains
TTITLE5=Over You
TTITLE6=Drifters
TTITLE7=Freedom
TTITLE8=Jasmine Flowers
TTITLE9=Conquistadora
EXTD=YEAR: 1999
EXTT0=
EXTT1=
EXTT2=
EXTT3=
EXTT4=
EXTT5=
EXTT6=
EXTT7=
EXTT8=
EXTT9=
PLAYORDER=
